<svg width="128" height="128" viewBox="0 0 128 128" xmlns="http://www.w3.org/2000/svg">
  <!-- Fondo azul -->
  <rect width="128" height="128" rx="20" fill="#2563eb"/>
  
  <!-- Cabeza del robot -->
  <rect x="32" y="24" width="64" height="48" rx="8" fill="#ffffff" stroke="#1e40af" stroke-width="2"/>
  
  <!-- Ojos -->
  <circle cx="48" cy="40" r="6" fill="#2563eb"/>
  <circle cx="80" cy="40" r="6" fill="#2563eb"/>
  <circle cx="48" cy="40" r="2" fill="#ffffff"/>
  <circle cx="80" cy="40" r="2" fill="#ffffff"/>
  
  <!-- Boca -->
  <rect x="56" y="52" width="16" height="8" rx="4" fill="#2563eb"/>
  
  <!-- Antena -->
  <line x1="64" y1="24" x2="64" y2="16" stroke="#1e40af" stroke-width="3" stroke-linecap="round"/>
  <circle cx="64" cy="14" r="3" fill="#ef4444"/>
  
  <!-- Cuerpo -->
  <rect x="28" y="72" width="72" height="40" rx="8" fill="#ffffff" stroke="#1e40af" stroke-width="2"/>
  
  <!-- Panel de control -->
  <rect x="36" y="80" width="56" height="24" rx="4" fill="#f1f5f9" stroke="#64748b" stroke-width="1"/>
  
  <!-- Botones del panel -->
  <circle cx="48" cy="88" r="3" fill="#10b981"/>
  <circle cx="64" cy="88" r="3" fill="#f59e0b"/>
  <circle cx="80" cy="88" r="3" fill="#ef4444"/>
  
  <!-- Líneas del panel -->
  <line x1="44" y1="96" x2="84" y2="96" stroke="#64748b" stroke-width="1"/>
  <line x1="44" y1="100" x2="72" y2="100" stroke="#64748b" stroke-width="1"/>
  
  <!-- Brazos -->
  <rect x="16" y="76" width="12" height="24" rx="6" fill="#ffffff" stroke="#1e40af" stroke-width="2"/>
  <rect x="100" y="76" width="12" height="24" rx="6" fill="#ffffff" stroke="#1e40af" stroke-width="2"/>
  
  <!-- Manos -->
  <circle cx="22" cy="106" r="6" fill="#ffffff" stroke="#1e40af" stroke-width="2"/>
  <circle cx="106" cy="106" r="6" fill="#ffffff" stroke="#1e40af" stroke-width="2"/>
  
  <!-- Piernas -->
  <rect x="40" y="112" width="12" height="12" rx="6" fill="#ffffff" stroke="#1e40af" stroke-width="2"/>
  <rect x="76" y="112" width="12" height="12" rx="6" fill="#ffffff" stroke="#1e40af" stroke-width="2"/>
</svg>